<svg width="904" height="884" viewBox="0 0 904 884" fill="none" xmlns="http://www.w3.org/2000/svg">
<path d="M234.436 338.17C234.436 338.17 249.127 375.3 297.729 377.12" stroke="#CCDDE2" stroke-width="5.32" stroke-miterlimit="10"/>
<path d="M354.795 370.63C354.795 370.63 382.739 363.29 401.092 335.18" stroke="#CCDDE2" stroke-width="5.32" stroke-miterlimit="10"/>
<path d="M767.438 880.15C770.232 878.41 787.727 880.15 791.021 880.15C798.187 880.181 805.338 879.495 812.368 878.1C900.471 860.4 908.296 731.1 897.148 644.27C894.769 626.061 890.693 608.116 884.972 590.67C868.475 539.59 838.915 492.27 802.807 453.43C789.384 439 773.176 426.29 764.374 408.2C748.266 375.07 760.871 336.65 768.366 303.03C778.346 257.91 782.528 208.78 733.356 186.33C630.063 139.15 515.792 223.82 515.792 223.82" stroke="#CCDDE2" stroke-width="5.32" stroke-miterlimit="10"/>
<path d="M76.4526 720.73C70.6442 749.5 70.3448 779.61 80.225 807.11C89.0474 831.66 106.472 856.88 129.257 870.9C142.317 878.854 157.7 882.09 172.849 880.07" stroke="#CCDDE2" stroke-width="5.32" stroke-miterlimit="10"/>
<path d="M297.709 444.03V347.76V344.92V321.97V313.42V266.88" stroke="#CCDDE2" stroke-width="5.32" stroke-miterlimit="10"/>
<path d="M361.072 426.68V379.37C361.075 377.437 360.47 375.552 359.343 373.984C358.216 372.415 356.625 371.241 354.795 370.63L327.41 361.48V266.88" stroke="#CCDDE2" stroke-width="5.32" stroke-miterlimit="10"/>
<path d="M297.709 347.76C305.563 349.99 319.146 352.97 327.39 351.23" stroke="#CCDDE2" stroke-width="5.32" stroke-miterlimit="10"/>
<path d="M297.709 322C307.48 322.78 319.665 323.63 327.41 325.65" stroke="#CCDDE2" stroke-width="5.32" stroke-miterlimit="10"/>
<path d="M297.709 344.92C306.492 343.68 319.306 340.98 327.41 337.47" stroke="#CCDDE2" stroke-width="5.32" stroke-miterlimit="10"/>
<path d="M297.709 313.42C314.805 308.67 323.268 302.81 327.41 297.92" stroke="#CCDDE2" stroke-width="5.32" stroke-miterlimit="10"/>
<path d="M149.446 289.83L112.351 292.85" stroke="#CCDDE2" stroke-width="5.32" stroke-miterlimit="10"/>
<path d="M144.776 273.44L108.029 276.42" stroke="#CCDDE2" stroke-width="5.32" stroke-miterlimit="10"/>
<path d="M548.277 240.67L709.065 227.58C711.27 227.403 713.454 228.111 715.138 229.547C716.823 230.983 717.869 233.031 718.047 235.24C718.047 235.45 718.047 235.67 718.047 235.92C718.051 238.022 717.262 240.048 715.839 241.593C714.416 243.137 712.464 244.086 710.372 244.25L554.934 256.88" stroke="#CCDDE2" stroke-width="5.32" stroke-miterlimit="10"/>
<path d="M302.1 277.45L267.33 280.25" stroke="#CCDDE2" stroke-width="5.32" stroke-miterlimit="10"/>
<path d="M393.677 270L324.575 275.61" stroke="#CCDDE2" stroke-width="5.32" stroke-miterlimit="10"/>
<path d="M298.947 260.92L273.637 262.98" stroke="#CCDDE2" stroke-width="5.32" stroke-miterlimit="10"/>
<path d="M386.352 253.83L325.005 258.79" stroke="#CCDDE2" stroke-width="5.32" stroke-miterlimit="10"/>
<path d="M222.061 738.46C222.729 738.08 223.388 737.69 224.057 737.29C230.145 733.6 230.943 728.22 225.893 723.48C204.336 703.26 179.306 685.96 151.861 674.86C127.85 665.14 99.5064 659.06 73.5983 662.29C61.6223 663.79 31.6224 669.72 39.3769 688.37C41.0436 692.37 44.1972 695.55 47.3609 698.51C89.1871 737.49 167.041 769.93 222.061 738.46Z" stroke="#CCDDE2" stroke-width="5.32" stroke-miterlimit="10"/>
<path d="M42.2212 693.71C2.54072 646.32 51.2032 515.47 71.9915 460.06C80.9137 436.22 81.3727 410.36 79.8857 385.18C79.4266 376.24 68.3488 320.69 84.3168 322.25C86.8318 322.5 88.8078 324.31 90.4745 326.25C95.1204 331.623 97.9685 338.321 98.6182 345.4C101.509 342.513 104.812 340.073 108.419 338.16C110.439 337.071 112.55 336.158 114.726 335.43C116.421 334.702 118.267 334.4 120.105 334.55C125.874 335.55 127.61 343.17 126.402 348.95C124.357 359.41 115.824 363.46 110.295 371.58C109.583 372.639 108.955 373.752 108.419 374.91C104.247 383.57 104.736 394.14 105.425 403.65C106.425 415.801 109.54 427.684 114.626 438.76" stroke="#CCDDE2" stroke-width="5.32" stroke-miterlimit="10"/>
<path d="M212.779 616.92C222.939 649.66 228.857 683.67 229.206 718.12C229.276 721.7 229.206 725.25 229.107 728.83V729.25C229.12 729.918 229.094 730.586 229.027 731.25" stroke="#CCDDE2" stroke-width="5.32" stroke-miterlimit="10"/>
<path d="M108.419 374.91C108.419 374.91 81.9017 368.36 76.4825 356.58" stroke="#CCDDE2" stroke-width="5.32" stroke-miterlimit="10"/>
<path d="M108.419 338.17C108.419 338.17 126.303 262.17 89.2769 267.17C52.2511 272.17 76.4526 325 76.4526 325" stroke="#CCDDE2" stroke-width="5.32" stroke-miterlimit="10"/>
<path d="M90.4146 298.43C98.1256 298.43 104.377 292.166 104.377 284.44C104.377 276.714 98.1256 270.45 90.4146 270.45C82.7036 270.45 76.4526 276.714 76.4526 284.44C76.4526 292.166 82.7036 298.43 90.4146 298.43Z" stroke="#CCDDE2" stroke-width="5.32" stroke-miterlimit="10"/>
<path d="M649.025 498.33C652.411 501.398 656.815 503.095 661.38 503.09C670.652 503.09 678.197 496.35 678.197 488.09C678.197 468.583 678.173 449.083 678.127 429.59C678.127 418 680.602 395.97 661.38 395.97C648.207 395.97 644.524 406.36 644.564 416.22V426.97" stroke="#CCDDE2" stroke-width="5.32" stroke-miterlimit="10"/>
<path d="M649.025 374.79C650.634 376.445 652.555 377.763 654.675 378.669C656.796 379.576 659.075 380.052 661.38 380.07C663.584 380.071 665.766 379.637 667.802 378.793C669.838 377.949 671.688 376.711 673.246 375.149C674.804 373.588 676.04 371.735 676.882 369.694C677.725 367.654 678.158 365.468 678.157 363.26C678.157 341.48 678.133 319.7 678.087 297.92C678.087 285.01 680.602 260.36 661.38 260.36C648.207 260.36 644.524 271.99 644.524 282.99V291.99" stroke="#CCDDE2" stroke-width="5.32" stroke-miterlimit="10"/>
<path d="M658.426 395.92H664.354V377.12H658.426V395.92Z" fill="#D7E8F0"/>
<path d="M632.259 528.73C641.53 528.73 649.045 521.99 649.045 513.68C649.045 494.18 649.022 474.683 648.975 455.19C648.975 443.61 651.47 421.57 632.259 421.57C619.095 421.57 615.402 431.98 615.412 441.82C615.452 464.167 615.472 486.523 615.472 508.89C615.472 512.43 615.472 516.04 616.77 519.39C618.925 525.08 625.652 528.73 632.259 528.73Z" stroke="#CCDDE2" stroke-width="5.32" stroke-miterlimit="10"/>
<path d="M632.249 405.74C636.701 405.74 640.971 403.968 644.119 400.814C647.267 397.659 649.035 393.381 649.035 388.92C649.035 367.14 649.012 345.36 648.965 323.58C648.965 310.64 651.46 286.02 632.249 286.02C619.085 286.02 615.393 297.65 615.403 308.64C615.403 333.613 615.423 358.587 615.462 383.56C615.462 387.56 615.462 391.56 616.75 395.3C618.916 401.65 625.652 405.74 632.249 405.74Z" stroke="#CCDDE2" stroke-width="5.32" stroke-miterlimit="10"/>
<path d="M629.295 421.56H635.223V402.76H629.295V421.56Z" fill="#D7E8F0"/>
<path d="M633.636 286.25C628.716 274.12 629.574 261.92 631.64 250.64C632.349 246.84 633.197 243.19 634.005 239.64C634.789 236.244 636.693 233.212 639.41 231.034C642.126 228.856 645.496 227.661 648.975 227.64H649.045C652.868 227.638 656.554 229.065 659.384 231.64" stroke="#CCDDE2" stroke-width="5.32" stroke-miterlimit="10"/>
<path d="M664.744 248C664.494 256 661.38 260.38 661.38 260.38" stroke="#CCDDE2" stroke-width="5.32" stroke-miterlimit="10"/>
<path d="M551.66 812.07C551.181 815.267 550.229 818.374 548.836 821.29C548.656 817.64 551.66 812.07 551.66 812.07Z" fill="#2E2E2E"/>
<path d="M485.114 808.27C485.962 800.61 490.912 790.18 495.094 778.27C491.77 789.26 486.631 800.43 485.114 808.27Z" fill="#2E2E2E"/>
<path d="M497.908 818.7C495.423 820.05 492.209 821.22 488.557 818.49C491.601 819.386 494.827 819.459 497.908 818.7V818.7Z" fill="#2E2E2E"/>
<path d="M496.83 769C496.833 766.445 496.31 763.916 495.293 761.573C494.277 759.229 492.789 757.121 490.922 755.38C494.066 757.87 497.149 761.66 496.83 769Z" fill="#2E2E2E"/>
<path d="M502.419 817.1C503.643 816.493 504.806 815.769 505.892 814.94C504.844 816.646 504.022 818.481 503.447 820.4C503.337 818.42 502.988 817.46 502.419 817.1Z" fill="#2E2E2E"/>
<path d="M518.596 828.81C514.315 831.33 509.615 831.81 506.621 829.2C510.772 831.22 515.064 830.33 518.596 828.81Z" fill="#2E2E2E"/>
<path d="M526.78 827.43C526.002 826.43 525.153 825.69 523.786 825.94C524.385 825.55 524.884 825.19 525.303 824.94C526.85 823.88 526.531 825.55 526.78 827.43Z" fill="#2E2E2E"/>
<path d="M531.271 831.11C535.553 830.76 541.012 830.3 545.293 826.18C545.043 826.57 544.834 827.04 544.584 827.53C542.209 832.46 536.022 831.11 531.271 831.11Z" fill="#2E2E2E"/>
<path d="M550.073 823.91C549.143 823.678 548.17 823.678 547.239 823.91C547.843 823.082 548.377 822.206 548.836 821.29C548.805 821.796 548.902 822.302 549.118 822.76C549.334 823.218 549.663 823.614 550.073 823.91Z" fill="#2E2E2E"/>
<path d="M554.564 824.87C553.786 824.73 553.077 824.55 552.439 824.41C556.97 824.16 561.82 824.34 565.612 820.19C562.778 823.49 558.886 825.72 554.564 824.87Z" fill="#2E2E2E"/>
<path d="M566.77 818.7C567.234 818.005 567.65 817.28 568.017 816.53C567.65 817.28 567.233 818.005 566.77 818.7V818.7Z" fill="#2E2E2E"/>
<path d="M569.765 812.21C569.555 812.9 569.325 813.56 569.095 814.21C569.357 813.557 569.581 812.889 569.765 812.21V812.21Z" fill="#2E2E2E"/>
<path d="M568.027 816.53C568.42 815.762 568.773 814.974 569.085 814.17C568.789 814.981 568.435 815.769 568.027 816.53V816.53Z" fill="#2E2E2E"/>
<path d="M570.073 783.58C569.889 783.279 569.647 783.018 569.36 782.812C569.074 782.606 568.75 782.459 568.407 782.38L570.672 781.21C570.364 781.968 570.163 782.766 570.073 783.58V783.58Z" fill="#2E2E2E"/>
<path d="M733.336 709.55C702.009 741.19 661.37 751.48 661.37 751.48C663.107 779.48 657.019 873.65 656.56 877.76C656.101 881.87 633.506 880.49 633.506 880.49L536.301 880.35C539.295 879.46 542.139 878.54 544.794 877.51C591.91 859.51 595.033 823.42 588.127 797.42C584.235 782.73 580.582 778.42 577.508 777.87C586.001 773.87 599.275 768.26 612.129 765.14C633.367 760 703.496 740.8 725.831 715.65C728.013 713.251 730.543 711.195 733.336 709.55Z" fill="#2E2E2E"/>
<path d="M724.953 510C724.953 510 691.52 479.63 653.905 520.42C627.389 549.19 626.321 571.14 628.027 581.61C628.966 583.757 629.597 586.026 629.903 588.35L633.267 590.62L630.961 590.4C635.143 598.88 649.544 631.91 631.67 653.33C610.991 678.09 585.113 710.33 515.273 737.61C515.273 737.61 480.583 727.4 471.132 751.16C471.132 751.16 482.349 749.16 486.88 752.47C466.032 750.42 397.06 752.01 397.06 752.01C397.06 752.01 354.266 758.36 343.677 797.01C333.088 835.66 347.26 843.8 368.358 868.59C372.35 873.24 379.336 877.11 388.427 880.16L335.254 880.09L339.755 872.25C344.745 860.04 332.639 857.7 332.639 857.7C320.314 856.64 323.498 849.4 323.498 849.4C310.404 766.9 313.098 643.28 316.921 611.92C320.743 580.56 315.144 589.68 315.144 589.68C305.274 600.39 247.819 611.92 247.819 611.92C274.965 595.46 284.346 573.92 289.057 523.1C293.657 473.72 267.25 455.53 265.723 454.5C265.712 454.495 265.7 454.493 265.688 454.493C265.676 454.493 265.664 454.495 265.653 454.5L368.208 423.6L437.419 412.89C436.361 416.16 434.555 415.31 431.082 415.8L424.964 416.69C425.2 416.704 425.428 416.78 425.626 416.91C425.824 417.04 425.985 417.219 426.092 417.43C426.176 417.682 426.223 417.945 426.232 418.21C426.91 432.55 436.212 444.92 448.258 452.13C464.924 462.13 488.397 461.88 505.463 452.76C517.708 446.2 523.906 433.61 523.337 419.95C594.534 428.73 675.552 456.25 724.953 510Z" fill="#2E2E2E"/>
<path d="M425.353 749.92L439.196 759.82L438.028 759.07C428.075 753.107 416.69 749.972 405.094 750L425.353 749.92Z" fill="#D7E8F0"/>
<path d="M525.254 821.68C525.224 822.148 525.105 822.606 524.904 823.03C524.854 821.25 525.294 820.26 525.254 821.68Z" fill="#D7E8F0"/>
<path d="M590.782 814.27C590.777 831.324 584.013 847.679 571.978 859.738C559.943 871.797 543.621 878.575 526.601 878.58H405.094C418.421 878.581 431.417 874.425 442.279 866.689C453.141 858.952 461.33 848.019 465.709 835.407C470.087 822.795 470.439 809.13 466.714 796.309C462.99 783.488 455.374 772.147 444.924 763.86C443.084 762.425 441.169 761.089 439.186 759.86H495.074C496.77 762.66 499.176 770 493.237 786.18C485.094 808.31 480.952 817.39 492.239 819.34C503.527 821.29 505.213 810.34 505.872 814.98C506.531 819.62 498.397 823.49 506.581 829.24C513.906 834.38 523.008 827.36 524.884 823.07C524.884 826.22 526.371 831.83 534.475 831.33C547.219 830.55 549.445 818.56 549.445 818.56C549.664 820.25 550.449 821.815 551.671 823.001C552.892 824.187 554.479 824.923 556.171 825.09C562.289 825.8 572.459 817.21 571.501 804.23C570.542 791.25 566.79 780.68 575.393 777.84C576.472 777.524 577.44 776.911 578.187 776.07C586.393 787.106 590.811 800.508 590.782 814.27Z" fill="#D7E8F0"/>
<path d="M545.642 335.46C545.49 335.48 545.336 335.48 545.183 335.46C545.612 337.55 546.391 339.78 546.92 342.02C547.338 343.7 547.516 345.43 547.449 347.16C546.88 355.29 541.151 359.68 533.357 359.9C533.55 361.762 533.177 363.639 532.287 365.284C531.396 366.93 530.03 368.267 528.367 369.12C524.195 371.32 517.389 370.82 514.205 366.96C510.493 362.45 512.329 356.88 514.604 351.96C515.413 350.22 516.231 348.59 516.9 347.1C517.718 345.25 518.427 343.41 519.056 341.53C521.281 334.581 522.998 327.479 524.195 320.28C525.679 313.023 526.66 305.672 527.129 298.28C526.64 296.47 526.95 293.88 526.241 292C525.213 289.084 523.34 286.542 520.862 284.7C515.762 280.94 508.996 281.19 503.587 277.86C498.695 274.801 494.835 270.337 492.509 265.05C492.04 263.95 491.621 262.53 490.982 261.29C490.686 260.624 490.25 260.031 489.704 259.55C487.259 257.5 485.852 261.11 484.365 262.55C482.83 263.973 481.01 265.051 479.025 265.712C477.04 266.372 474.938 266.6 472.858 266.38V266.38C471.287 266.175 469.758 265.723 468.327 265.04C467.276 264.465 466.292 263.774 465.393 262.98C464.333 261.941 463.096 261.101 461.74 260.5C459.196 259.5 459.056 263.76 458.697 265.21C457.988 267.84 456.75 269.97 454.275 271.21C452.898 271.889 451.389 272.254 449.854 272.28C448.067 272.345 446.282 272.105 444.575 271.57C442.93 271.078 441.367 270.347 439.934 269.4C439.678 269.223 439.377 269.123 439.066 269.111C438.755 269.098 438.447 269.175 438.177 269.331C437.908 269.486 437.688 269.716 437.543 269.992C437.398 270.268 437.335 270.579 437.359 270.89C437.848 284.76 424.894 289.59 419.585 290.97C417.589 312.97 423.577 337.33 435.553 356.2C435.104 359.014 433.962 361.671 432.23 363.93C423.477 366.13 413.387 363.76 409.605 356.2C405.613 348.2 406.132 337.01 412.369 331.26C408.048 330.6 406.83 324.19 409.316 320.43C409.525 320.08 409.635 319.87 409.485 319.51C408.956 318.06 402.599 316.86 400.862 316.3C398.383 315.407 396.146 313.949 394.327 312.04C392.508 310.13 391.158 307.823 390.383 305.3C386.701 293.13 396.042 280.15 407.729 277.2C404.256 271.07 399.655 266.1 397.749 259.01C395.843 251.92 396.93 244.5 402.349 239.21C404.539 237.119 407.213 235.607 410.132 234.811C413.05 234.015 416.121 233.959 419.066 234.65C420.788 235.908 422.315 237.414 423.597 239.12C422.807 237.956 422.176 236.692 421.721 235.36C425.68 236.711 429.152 239.206 431.701 242.53C427.14 235.68 428.836 226.35 433.976 220.32C440.164 213.05 452.339 211.45 460.842 215.18C461.456 215.467 462.047 215.801 462.609 216.18C463.427 217.18 464.235 218.18 465.054 219.12C465.147 218.865 465.254 218.614 465.373 218.37C467.092 220.144 468.72 222.003 470.253 223.94C475.782 208.23 497.688 208.19 509.265 216.39C511.993 218.336 514.226 220.899 515.782 223.87C516.375 226.479 516.327 229.193 515.642 231.78C514.934 234.27 515.503 236.15 517.089 236.68C518.287 236.97 519.549 236.806 520.632 236.22C524.884 234.3 528.387 231.96 533.307 232.49C549.415 234.2 561.091 255.12 551.57 268.78C551.008 269.629 550.37 270.426 549.664 271.16C548.317 272.54 545.303 274.07 544.674 275.98C544.657 276.025 544.657 276.075 544.674 276.12C543.477 280.12 552.359 281.05 554.734 282.12C575.632 290.87 571.201 334.11 545.642 335.46Z" fill="#FF5151"/>
<path d="M424.964 416.63L431.082 415.74C432.768 415.506 434.355 414.804 435.663 413.714C436.972 412.624 437.95 411.188 438.487 409.57C438.701 409.011 438.842 408.426 438.906 407.83L438.976 407.34L439.755 401.45L445.034 368.71" stroke="black" stroke-width="5.32" stroke-miterlimit="10"/>
<path d="M514.205 367L514.704 411.7V413.12C514.73 414.564 515.251 415.954 516.179 417.058C517.108 418.162 518.388 418.911 519.804 419.18L523.377 419.89" stroke="black" stroke-width="5.32" stroke-miterlimit="10"/>
<path d="M419.515 290.91C417.07 317.3 426.202 347.13 443.337 366.78C475.273 403.43 502.219 366.78 502.219 366.78" stroke="black" stroke-width="5.32" stroke-miterlimit="10"/>
<path d="M527.449 299.09C526.521 297.34 527.07 294.19 526.261 291.98C525.208 289.078 523.331 286.548 520.862 284.7C515.752 280.96 508.986 281.19 503.587 277.88C498.671 274.803 494.794 270.315 492.459 265C491.72 263.32 491.142 260.74 489.684 259.52C487.239 257.52 485.822 261.07 484.315 262.52C482.199 264.498 479.538 265.793 476.677 266.235C473.817 266.677 470.89 266.247 468.277 265C465.852 263.81 464.186 261.41 461.661 260.46C459.136 259.51 458.996 263.7 458.617 265.17C457.928 267.78 456.691 269.91 454.206 271.17C449.784 273.36 443.737 271.92 439.874 269.33C439.615 269.154 439.311 269.055 438.998 269.045C438.685 269.034 438.375 269.112 438.104 269.27C437.834 269.427 437.612 269.658 437.467 269.936C437.321 270.214 437.256 270.527 437.279 270.84C437.888 288.29 417.27 291.4 417.27 291.4" stroke="black" stroke-width="5.32" stroke-miterlimit="10"/>
<path d="M448.597 329.28C458.904 329.28 467.259 320.908 467.259 310.58C467.259 300.252 458.904 291.88 448.597 291.88C438.29 291.88 429.934 300.252 429.934 310.58C429.934 320.908 438.29 329.28 448.597 329.28Z" stroke="black" stroke-width="5.32" stroke-miterlimit="10"/>
<path d="M496.98 327.63C507.287 327.63 515.642 319.258 515.642 308.93C515.642 298.602 507.287 290.23 496.98 290.23C486.673 290.23 478.317 298.602 478.317 308.93C478.317 319.258 486.673 327.63 496.98 327.63Z" stroke="black" stroke-width="5.32" stroke-miterlimit="10"/>
<path d="M440.802 312.47C440.802 312.47 448.317 321.11 456.062 312.47" stroke="black" stroke-width="5.32" stroke-miterlimit="10"/>
<path d="M489.345 312.47C489.345 312.47 496.87 321.11 504.605 312.47" stroke="black" stroke-width="5.32" stroke-miterlimit="10"/>
<path d="M467.269 310.58C467.269 310.58 471.501 303.68 478.307 308.93" stroke="black" stroke-width="5.32" stroke-miterlimit="10"/>
<path d="M458.687 282.84C458.687 282.84 439.315 268 423.058 282" stroke="black" stroke-width="5.32" stroke-miterlimit="10"/>
<path d="M515.353 275.05C515.353 275.05 492.349 267 481.241 285.32" stroke="black" stroke-width="5.32" stroke-miterlimit="10"/>
<path d="M434.874 355.54C434.83 358.647 433.811 361.66 431.963 364.155C430.114 366.649 427.53 368.498 424.575 369.44C415.014 372.28 404.894 365.08 400.753 356.78C399.238 353.913 398.545 350.682 398.751 347.445C398.957 344.207 400.054 341.091 401.92 338.44C402.088 338.174 402.199 337.876 402.248 337.565C402.297 337.254 402.282 336.937 402.205 336.632C402.127 336.327 401.988 336.041 401.797 335.791C401.606 335.542 401.366 335.334 401.092 335.18C399.234 334.062 397.697 332.48 396.632 330.589C395.566 328.698 395.009 326.562 395.014 324.39C395.016 323.475 395.117 322.563 395.314 321.67C395.375 321.344 395.367 321.008 395.292 320.685C395.217 320.362 395.075 320.058 394.876 319.793C394.677 319.528 394.425 319.307 394.136 319.144C393.847 318.982 393.528 318.882 393.198 318.85C392.222 318.764 391.254 318.6 390.304 318.36C387.641 317.414 385.237 315.856 383.282 313.813C381.327 311.769 379.877 309.296 379.046 306.59C375.054 293.5 385.144 279.52 397.709 276.37C393.956 269.77 388.996 264.45 386.94 256.79C384.884 249.13 386.092 241.21 391.93 235.5C400.962 226.64 416.282 229.4 423.577 239.12C418.657 231.74 420.503 221.7 426.022 215.21C432.679 207.41 445.772 205.71 454.904 209.68C459.265 211.6 462.06 215.57 465.034 219.08C471.022 202.23 494.525 202.08 506.95 210.96C513.467 215.6 517.718 224.05 515.593 231.74C514.495 235.65 516.511 237.99 520.583 236.18C524.834 234.3 528.337 231.92 533.257 232.45C550.323 234.26 562.429 257.67 549.614 271.12C548.267 272.54 545.253 274.03 544.624 275.94C543.167 280.02 552.239 281.01 554.604 282.04C575.772 290.95 571.131 334.65 545.183 335.53C545.962 339.26 547.738 343.37 547.449 347.2C546.88 355.33 541.151 359.72 533.357 359.97C533.926 363.63 531.66 367.42 528.367 369.16C524.195 371.39 517.389 370.86 514.205 367C509.215 360.9 514.355 352.91 516.9 347.1C520.652 338.58 522.489 329.4 524.195 320.28C525.75 312.727 526.75 305.07 527.189 297.37V297.05" stroke="black" stroke-width="5.32" stroke-miterlimit="10"/>
<path d="M231.442 102.92L223.837 132.61H224.047L226.632 125.84L280.753 83.91L286.242 62.31L231.442 102.92ZM251.152 41C249.764 41.7393 248.546 42.762 247.576 44.0022C246.607 45.2423 245.908 46.6723 245.524 48.2L234.366 91.68L289.625 48.9L297.979 16L251.152 41ZM260.454 58C259.785 61.41 257.699 63.89 255.783 63.53C253.867 63.17 252.879 60.06 253.588 56.62C254.296 53.18 256.352 50.69 258.268 51.08C260.184 51.47 261.132 54.5 260.454 57.94V58ZM232.51 130.4L234.107 129.97C234.738 129.704 235.418 129.571 236.103 129.58C236.859 129.583 237.605 129.756 238.285 130.085C238.966 130.415 239.564 130.893 240.036 131.485C240.508 132.077 240.842 132.767 241.013 133.505C241.183 134.243 241.187 135.01 241.023 135.75L231.891 172L260.424 164.2L277.45 97L232.51 130.4Z" fill="#D7E8F0"/>
<path d="M215.254 481.84C219.147 451.52 220.963 420.6 224.765 390.05L225.384 385.27C226.452 377.01 227.709 368.75 229.246 360.58C229.298 360.186 229.371 359.796 229.466 359.41C230.344 354.57 231.312 349.77 232.46 344.96C235.723 330.57 244.007 320.04 252.091 308.32L252.6 307.06C270.074 281.57 279.75 251.527 280.444 220.61C280.633 209.43 280.194 187.33 267.4 182.75C260.214 180.17 252.6 185.2 248.618 190.95C246.954 193.318 245.612 195.898 244.626 198.62" stroke="black" stroke-width="5.32" stroke-miterlimit="10"/>
<path d="M151.143 332.35C138.428 378 117.261 421 106.852 467.28C97.3008 509.67 94.4266 571.36 134.506 599.8C169.726 624.8 220.953 618.64 260.314 609.1C271.772 606.37 283.051 602.934 294.086 598.81C302.589 595.65 310.554 591.5 318.867 588.1C318.867 588.1 303.607 740.38 324.855 857.01" stroke="black" stroke-width="5.32" stroke-miterlimit="10"/>
<path d="M151.153 332.36L153.259 324.78C156.062 314.727 155.386 304.019 151.343 294.4L147.171 284.4C144.446 276.08 143.598 272.05 147.011 263.91C148.633 260.071 150.905 256.543 153.728 253.48C161.971 244.37 173.578 239.84 185.524 238.3C197.47 236.76 210.684 237.96 220.304 245.72C226.831 251 232.979 263.54 228.747 271.72C225.644 277.72 219.087 279.42 213.498 277.28C211.544 276.553 209.785 275.382 208.358 273.86C201.771 266.94 187.4 265.53 182.47 272.25" stroke="black" stroke-width="5.32" stroke-miterlimit="10"/>
<path d="M156.482 232.28C155.484 228.42 155.634 223.54 157.929 217.28C161.223 208.33 170.814 202.45 180.165 198.59C183.578 197.17 186.971 196.01 189.975 195.1C200.175 191.95 211.362 190.29 222.191 191.39C225.852 191.751 229.473 192.444 233.009 193.46C237.086 194.644 240.986 196.369 244.606 198.59C253.588 204.08 259.576 212.44 263.238 223.41C266.402 232.87 267.629 244.12 259.785 250.03" stroke="black" stroke-width="5.32" stroke-miterlimit="10"/>
<path d="M230.065 264.23L232.849 269.8C236.332 273.63 241.163 276.05 247.819 274.39C260.793 271.15 262.091 260.39 259.795 250.07C259.408 248.198 258.908 246.351 258.298 244.54C255.304 235.45 250.544 228.13 243.957 222.79C239.272 218.997 233.862 216.206 228.059 214.59C223.342 213.223 218.475 212.44 213.568 212.26C203.899 211.953 194.249 213.306 185.035 216.26C175.813 219.09 163.209 223.96 156.492 232.32C154.989 234.153 153.801 236.225 152.979 238.45C150.913 244.07 150.564 248.63 151.293 252.31L151.941 255.65" stroke="black" stroke-width="5.32" stroke-miterlimit="10"/>
<path d="M195.374 213.68V213.65" stroke="black" stroke-width="3.55" stroke-miterlimit="10"/>
<path d="M340.394 868.82C340.311 871.826 339.063 874.681 336.915 876.781C334.767 878.881 331.888 880.061 328.887 880.07H231.442C229.253 880.073 227.111 879.429 225.284 878.22C225.357 875.222 226.596 872.372 228.736 870.276C230.876 868.18 233.749 867.004 236.741 867H334.236C336.418 867.019 338.551 867.65 340.394 868.82Z" fill="#D7E8F0"/>
<path d="M340.394 868.82C340.311 871.826 339.063 874.681 336.915 876.781C334.767 878.881 331.888 880.061 328.887 880.07H231.442C229.253 880.073 227.111 879.429 225.284 878.22C225.357 875.222 226.596 872.372 228.736 870.276C230.876 868.18 233.749 867.004 236.741 867H334.236C336.418 867.019 338.551 867.65 340.394 868.82Z" fill="#D7E8F0"/>
<path d="M223.867 132.63L245.534 48.18C245.93 46.6574 246.636 45.2334 247.608 43.9977C248.58 42.762 249.797 41.7414 251.182 41L318.048 5.29999L278.927 159.12L231.771 172" stroke="black" stroke-width="5.32" stroke-miterlimit="10"/>
<path d="M206.791 272.44V272.47L203.658 284.98L179.257 285.04L182.45 272.28L182.49 272.25" stroke="black" stroke-width="5.32" stroke-linecap="round" stroke-linejoin="round"/>
<path d="M202.65 192.15L217.201 134.39L234.107 129.93C234.721 129.664 235.383 129.524 236.053 129.52C236.81 129.526 237.556 129.701 238.236 130.033C238.917 130.365 239.515 130.845 239.987 131.439C240.458 132.032 240.792 132.724 240.962 133.463C241.133 134.202 241.137 134.969 240.973 135.71L226.891 192.09" stroke="black" stroke-width="5.32" stroke-linecap="round" stroke-linejoin="round"/>
<path d="M244.017 176.81L239.376 195.82" stroke="black" stroke-width="5.32" stroke-linecap="round" stroke-linejoin="round"/>
<path d="M219.276 278.12L214.476 297.76" stroke="black" stroke-width="5.32" stroke-linecap="round" stroke-linejoin="round"/>
<path d="M203.658 284.98L214.476 297.76H190.424L179.257 285.04L203.658 284.98Z" stroke="black" stroke-width="5.32" stroke-linecap="round" stroke-linejoin="round"/>
<path d="M260.482 57.946C261.164 54.5119 260.179 51.4211 258.282 51.0426C256.384 50.6641 254.293 53.1411 253.611 56.5752C252.928 60.0093 253.913 63.1001 255.811 63.4786C257.708 63.8571 259.799 61.38 260.482 57.946Z" fill="black"/>
<path d="M340.913 815.81C340.915 828.529 344.68 840.962 351.734 851.536C358.788 862.11 368.812 870.352 380.54 875.218C392.268 880.084 405.172 881.356 417.621 878.873C430.071 876.391 441.506 870.265 450.481 861.27C459.456 852.276 465.567 840.817 468.043 828.343C470.518 815.868 469.247 802.938 464.389 791.187C459.531 779.437 451.305 769.394 440.75 762.328C430.196 755.261 417.787 751.49 405.094 751.49C396.664 751.487 388.316 753.149 380.527 756.381C372.739 759.612 365.662 764.35 359.702 770.324C353.741 776.297 349.014 783.389 345.79 791.193C342.566 798.998 340.909 807.363 340.913 815.81V815.81Z" stroke="black" stroke-width="5.32" stroke-miterlimit="10"/>
<path d="M231.442 880.1H328.887C335.253 880.1 340.414 874.929 340.414 868.55C340.414 862.171 335.253 857 328.887 857H231.442C225.076 857 219.915 862.171 219.915 868.55C219.915 874.929 225.076 880.1 231.442 880.1Z" stroke="black" stroke-width="5.32" stroke-miterlimit="10"/>
<path d="M215.254 467.74C232.42 464.66 249.127 459.74 265.693 454.44C281.242 449.44 296.711 444.12 312.36 439.54C330.943 434.15 349.665 429.12 368.607 425C378.238 422.91 387.938 421.06 397.669 419.61C399.156 419.4 400.663 419.18 402.13 419.01C405.633 418.54 409.176 418.12 412.719 417.73C416.262 417.34 420.004 417.02 423.697 416.59C424.13 416.52 424.571 416.52 425.004 416.59V416.59C425.24 416.604 425.468 416.68 425.666 416.81C425.864 416.94 426.024 417.119 426.132 417.33C426.216 417.582 426.263 417.845 426.272 418.11C426.95 432.45 436.252 444.82 448.297 452.03C464.964 462.03 488.437 461.78 505.503 452.66C517.748 446.1 523.946 433.51 523.377 419.85C594.534 428.69 675.532 456.21 724.973 509.91L725.182 510.13C738.82 524.84 749.826 541.795 757.717 560.25C780.671 614.73 769.823 682.34 721.32 719.25C696.58 738.09 666.74 750.25 636.251 759.12C614.764 765.44 586.52 768.49 568.387 782.36" stroke="black" stroke-width="5.32" stroke-miterlimit="10"/>
<path d="M505.894 812.9C505.614 812.84 505.304 812.74 505.014 812.65" stroke="black" stroke-width="5.32" stroke-miterlimit="10"/>
<path d="M603.407 554.61C621.191 565.39 632.428 590.76 637.768 610.02C645.293 637.15 630.652 660.62 610.991 678.09C601.341 686.68 590.652 693.83 580.173 701.32C561.081 715 541.59 727.69 519.864 736.76C516.66 738.1 513.247 737.61 509.884 736.96C505.633 736.16 501.501 734.79 497.199 734.28C492.409 733.72 488.327 735.4 484.225 737.82C478.072 741.49 472.445 745.981 467.499 751.17L405.094 751.5C422.116 751.5 438.441 758.275 450.477 770.336C462.513 782.396 469.275 798.754 469.275 815.81C469.275 832.866 462.513 849.224 450.477 861.284C438.441 873.345 422.116 880.12 405.094 880.12H526.61C538.633 880.12 550.413 876.736 560.609 870.354C570.805 863.972 579.007 854.848 584.28 844.023C589.553 833.197 591.685 821.105 590.433 809.124C589.181 797.144 584.596 785.756 577.199 776.26" stroke="black" stroke-width="5.32" stroke-miterlimit="10"/>
<path d="M422.3 816.92C422.302 819.23 421.85 821.518 420.97 823.652C420.089 825.787 418.797 827.727 417.167 829.36C415.538 830.994 413.603 832.29 411.473 833.174C409.343 834.057 407.06 834.511 404.755 834.51V834.51C400.173 834.401 395.815 832.5 392.613 829.214C389.411 825.928 387.618 821.518 387.618 816.925C387.618 812.332 389.411 807.922 392.613 804.636C395.815 801.35 400.173 799.45 404.755 799.34V799.34C407.059 799.339 409.341 799.793 411.47 800.676C413.6 801.559 415.534 802.853 417.164 804.486C418.793 806.119 420.085 808.057 420.967 810.191C421.848 812.324 422.301 814.611 422.3 816.92V816.92Z" fill="#D7E8F0"/>
<path d="M553.367 787.89C554.376 791.044 554.832 794.35 554.714 797.66C554.66 801.048 554.143 804.413 553.177 807.66C552.858 808.76 552.519 809.83 552.179 810.87C552.02 811.28 551.87 811.65 551.71 812.03C550.746 814.103 550 816.272 549.485 818.5C549.075 820.96 549.574 823.28 552.479 824.38C554.016 824.855 555.639 824.986 557.233 824.763C558.826 824.54 560.351 823.969 561.7 823.09C574.315 814.01 572.678 796.48 568.477 782.37C567.538 779.22 566.481 776.24 565.373 773.57" stroke="black" stroke-width="5.32" stroke-miterlimit="10"/>
<path d="M549.804 816.86C548.107 821.26 544.814 826.86 540.822 829.4C540.822 829.4 540.762 829.4 540.732 829.46C538.951 830.491 536.965 831.115 534.916 831.288C532.866 831.461 530.804 831.178 528.876 830.46C523.577 828.08 525.074 822.8 527.05 818.37C527.678 817.01 528.307 815.76 528.846 814.69C533.227 805.51 534.125 796.2 533.088 785.58" stroke="black" stroke-width="5.32" stroke-miterlimit="10"/>
<path d="M527.09 818.34C526.032 820.97 521.65 827.53 517.349 829.89C514.135 831.66 509.495 831.56 506.601 829.21C501.002 824.69 504.136 816.47 506.69 811.16C511.102 801.98 513.277 790.57 510.603 780.55" stroke="black" stroke-width="5.32" stroke-miterlimit="10"/>
<path d="M467.579 751.17C475.722 751.17 481.012 751.44 483.547 751.64C484.695 751.713 485.822 751.994 486.87 752.47C505.104 761.28 490.942 794.11 487.07 802.15C485.074 806.36 482.389 815.7 488.577 818.49C490.32 819.133 492.182 819.387 494.033 819.235C495.884 819.083 497.68 818.529 499.295 817.61C502.811 815.387 505.731 812.335 507.798 808.72C507.798 808.72 507.798 808.66 507.858 808.59" stroke="black" stroke-width="5.32" stroke-miterlimit="10"/>
<path d="M660.891 749.33C662.119 791.5 661.151 836.47 656.271 880.5" stroke="black" stroke-width="5.32" stroke-miterlimit="10"/>
<path d="M156.472 880.1H791.011" stroke="black" stroke-width="5.32" stroke-miterlimit="10"/>
<path d="M480.672 356.35C480.672 356.35 490.922 357.35 498.008 345.5" stroke="black" stroke-width="5.32" stroke-miterlimit="10"/>
<path d="M429.635 198.75C429.635 198.94 508.756 200.64 508.756 200.64L504.954 237.73C504.954 237.73 501.361 242.55 485.802 247.36C470.243 252.17 440.473 255.22 435.004 235.29C431.718 223.378 429.914 211.105 429.635 198.75V198.75Z" fill="white"/>
<path d="M503.317 177.55C527.598 169.88 546.431 144 532.978 119.1C520.932 96.8 492.489 91.36 476.172 112.52C476.172 112.52 458.477 79.41 428.976 92.41C416.521 97.91 406.721 111.04 403.158 124.01C396.272 149.07 412.868 168.51 436.092 174.85C436.092 174.85 458.717 181.09 469.824 165.72C469.824 165.72 475.034 172.15 489.195 174.85" stroke="black" stroke-width="5.32" stroke-miterlimit="10"/>
<path d="M425.543 170.81L435.064 235.71C435.274 237.232 435.8 238.692 436.608 239.998C437.416 241.303 438.488 242.425 439.755 243.29C447.479 248.44 466.471 256.49 498.637 242.79C500.477 242.001 502.074 240.732 503.26 239.116C504.446 237.5 505.179 235.596 505.383 233.6L511.471 174.18" stroke="black" stroke-width="5.32" stroke-miterlimit="10"/>
<path d="M548.806 821.29C548.626 817.64 551.63 812.07 551.63 812.07C551.151 815.267 550.199 818.374 548.806 821.29V821.29Z" fill="#2E2E2E"/>
<path d="M629.904 588.35L633.267 590.62L630.961 590.4C630.293 589.06 629.904 588.35 629.904 588.35Z" fill="#2E2E2E"/>
<path d="M488.577 818.49C484.685 817.35 484.046 813.59 485.114 808.27C484.615 812.67 485.463 816.15 488.577 818.49Z" fill="black"/>
<path d="M486.99 752.55C488.352 753.279 489.614 754.183 490.742 755.24C489.395 754.18 488.048 753.33 486.99 752.55Z" fill="black"/>
<path d="M495.134 778.26C495.96 775.659 496.505 772.977 496.76 770.26C496.626 772.994 496.077 775.691 495.134 778.26V778.26Z" fill="black"/>
<path d="M502.419 817.1C500.983 817.791 499.477 818.328 497.928 818.7C499.904 817.64 501.461 816.46 502.419 817.1Z" fill="black"/>
<path d="M503.517 821.29C503.626 825.12 504.794 827.71 506.601 829.2C502.668 827.32 502.609 823.59 503.447 820.4C503.491 820.695 503.514 820.992 503.517 821.29V821.29Z" fill="black"/>
<path d="M520.403 827.6C521.361 826.781 522.506 826.211 523.736 825.94C522.122 827.064 520.4 828.026 518.597 828.81C519.223 828.444 519.826 828.04 520.403 827.6Z" fill="black"/>
<path d="M531.271 831.11C527.698 831.4 526.99 829.31 526.78 827.43C527.978 829 528.936 831.11 531.271 831.11Z" fill="black"/>
<path d="M547.199 823.91C546.644 824.731 546.006 825.492 545.293 826.18C545.66 825.232 546.33 824.434 547.199 823.91Z" fill="black"/>
<path d="M550.143 823.91C550.782 824.06 551.521 824.23 552.409 824.41C551.618 824.521 550.814 824.344 550.143 823.91V823.91Z" fill="black"/>
<path d="M577.508 777.87C574.604 779.26 572.229 780.43 570.672 781.21C570.85 780.809 571.133 780.463 571.49 780.21C573.117 779.22 575.133 777.45 577.508 777.87Z" fill="black"/>
<path d="M525.254 821.68C525.224 822.148 525.105 822.606 524.904 823.03C524.854 821.25 525.294 820.26 525.254 821.68Z" fill="#D7E8F0"/>
<path d="M68.768 296.39L11.882 301C10.7896 301.088 9.69064 300.959 8.64798 300.62C7.60532 300.282 6.63935 299.742 5.80526 299.029C4.97116 298.317 4.28527 297.447 3.78678 296.469C3.28829 295.491 2.98695 294.425 2.89999 293.33V293.33C2.72618 291.122 3.43324 288.934 4.86621 287.247C6.29918 285.56 8.34117 284.511 10.5447 284.33L71.0833 279.4" stroke="#CCDDE2" stroke-width="5.32" stroke-miterlimit="10"/>
<path d="M77.6203 283.87H77.5903" stroke="#CCDDE2" stroke-width="5.32" stroke-miterlimit="10"/>
<path d="M312.549 281.77C320.746 281.77 327.39 275.112 327.39 266.9C327.39 258.688 320.746 252.03 312.549 252.03C304.353 252.03 297.709 258.688 297.709 266.9C297.709 275.112 304.353 281.77 312.549 281.77Z" stroke="#CCDDE2" stroke-width="5.32" stroke-miterlimit="10"/>
<path d="M812.368 878.06V590.63H884.972C890.693 608.076 894.769 626.021 897.148 644.23C908.296 731.06 900.471 860.36 812.368 878.06Z" stroke="#CCDDE2" stroke-width="5.32" stroke-miterlimit="10"/>
<path d="M812.368 682.39H900.84" stroke="#CCDDE2" stroke-width="5.32" stroke-miterlimit="10"/>
<path d="M812.368 766.92H896.21" stroke="#CCDDE2" stroke-width="5.32" stroke-miterlimit="10"/>
</svg>
