<svg width="209" height="50" viewBox="0 0 209 50" fill="none" xmlns="http://www.w3.org/2000/svg">
<path d="M45.1501 21.75L44.6001 21.4L45.1501 20.95C45.8001 20.45 46.2001 19.6 46.2001 18.75V13.75C46.2001 12.75 45.7001 11.85 44.8501 11.35L28.7501 1.65001C27.7501 1.05001 26.4501 1.10001 25.5501 1.85001L4.55006 18.8C3.85006 19.4 3.50006 20.2 3.50006 21.05V26.1C3.50006 27.05 4.05006 28 4.85006 28.5L5.40006 28.85L4.85006 29.3C4.20006 29.85 3.80006 30.65 3.80006 31.5V36.5C3.80006 37.5 4.30006 38.4 5.15006 38.95L20.5501 48.2C21.2001 48.55 21.8501 48.75 22.5501 48.75C23.4001 48.75 24.3001 48.45 25.0001 47.9L45.4001 31.4C46.1001 30.85 46.4501 30.05 46.4501 29.2V24.15C46.5001 23.2 45.9501 22.25 45.1501 21.75ZM33.5001 10.35C33.7001 10.55 33.7001 10.9 33.5001 11.1L30.1501 14.2C30.0001 14.35 30.0001 14.6 30.1501 14.75L30.4001 15C30.5501 15.15 30.8001 15.15 30.9501 15L34.2501 11.9C34.4501 11.7 34.8001 11.7 35.0001 11.9C35.2001 12.1 35.2001 12.45 35.0001 12.65L31.6501 15.75C31.5001 15.9 31.5001 16.15 31.6501 16.3L31.9001 16.6C32.0501 16.75 32.3001 16.75 32.4501 16.6L35.7501 13.5C35.9501 13.3 36.3001 13.3 36.5001 13.5C36.7001 13.7 36.7001 14.05 36.4501 14.25L32.5501 17.9C32.0001 18.4 31.1501 18.4 30.6501 17.85L30.4001 17.6L23.1501 25.3C22.8501 25.65 22.4001 25.8 21.9501 25.8C21.5001 25.8 21.0501 25.6 20.7501 25.3L20.7001 25.25C20.4001 24.9 20.2501 24.5 20.2501 24.05C20.3001 23.6 20.5001 23.2 20.8501 22.9L29.0001 16.2L29.0501 16.15L28.8001 15.9C28.3001 15.35 28.3501 14.5 28.8501 14L32.7501 10.35C32.9501 10.15 33.3001 10.15 33.5001 10.35ZM14.2501 20.3C14.3001 19.85 14.5501 19.4 14.9501 19.15L20.6501 15.3L20.2001 14.85C19.9501 14.6 19.8001 14.2 19.8501 13.85C19.8501 13.45 20.0501 13.15 20.3001 12.9L23.7501 9.90001C24.5501 9.20001 25.5001 8.75001 26.5001 8.60001C27.5001 8.45001 28.5501 8.55001 29.5001 8.95001C29.5501 9.00001 29.6501 9.00001 29.6501 9.10001C29.7001 9.15001 29.7501 9.25001 29.8001 9.35001C29.8501 9.50001 29.8001 9.70001 29.6501 9.80001L16.9501 21.65C16.3001 22.25 15.3001 22.25 14.6501 21.6C14.3501 21.25 14.2001 20.8 14.2501 20.3ZM5.80006 26.1V22.25L20.9001 31.35C21.3501 31.6 21.8501 31.75 22.3501 31.75C23.0001 31.75 23.6001 31.55 24.1501 31.1L43.9001 15.15V18.8C43.9001 18.95 43.8501 19.1 43.7001 19.25L23.3001 35.75C22.7501 36.15 22.0001 36.2 21.4001 35.85L6.05006 26.55C5.85006 26.45 5.80006 26.3 5.80006 26.1ZM44.2001 29.2C44.2001 29.4 44.1501 29.55 44.0001 29.65L23.6501 46.1C23.1501 46.55 22.4001 46.6 21.8001 46.25L6.40006 37C6.25006 36.9 6.15006 36.7 6.15006 36.5V32.65L21.3001 41.75C21.7501 42 22.2501 42.15 22.7501 42.15C23.4001 42.15 24.0001 41.9 24.5001 41.5L44.2501 25.55V29.2H44.2001Z" fill="#F5F5F5"/>
<path d="M67.8398 26.7539H65.0391V33H61.5234V15.9375H67.8633C69.8789 15.9375 71.4336 16.3867 72.5273 17.2852C73.6211 18.1836 74.168 19.4531 74.168 21.0938C74.168 22.2578 73.9141 23.2305 73.4062 24.0117C72.9062 24.7852 72.1445 25.4023 71.1211 25.8633L74.8125 32.8359V33H71.0391L67.8398 26.7539ZM65.0391 23.9062H67.875C68.7578 23.9062 69.4414 23.6836 69.9258 23.2383C70.4102 22.7852 70.6523 22.1641 70.6523 21.375C70.6523 20.5703 70.4219 19.9375 69.9609 19.4766C69.5078 19.0156 68.8086 18.7852 67.8633 18.7852H65.0391V23.9062ZM82.4648 33.2344C80.6055 33.2344 79.0898 32.6641 77.918 31.5234C76.7539 30.3828 76.1719 28.8633 76.1719 26.9648V26.6367C76.1719 25.3633 76.418 24.2266 76.9102 23.2266C77.4023 22.2188 78.0977 21.4453 78.9961 20.9062C79.9023 20.3594 80.9336 20.0859 82.0898 20.0859C83.8242 20.0859 85.1875 20.6328 86.1797 21.7266C87.1797 22.8203 87.6797 24.3711 87.6797 26.3789V27.7617H79.6055C79.7148 28.5898 80.043 29.2539 80.5898 29.7539C81.1445 30.2539 81.8438 30.5039 82.6875 30.5039C83.9922 30.5039 85.0117 30.0312 85.7461 29.0859L87.4102 30.9492C86.9023 31.668 86.2148 32.2305 85.3477 32.6367C84.4805 33.0352 83.5195 33.2344 82.4648 33.2344ZM82.0781 22.8281C81.4062 22.8281 80.8594 23.0547 80.4375 23.5078C80.0234 23.9609 79.7578 24.6094 79.6406 25.4531H84.3516V25.1836C84.3359 24.4336 84.1328 23.8555 83.7422 23.4492C83.3516 23.0352 82.7969 22.8281 82.0781 22.8281ZM94.8867 30.5039C95.5117 30.5039 96.0195 30.332 96.4102 29.9883C96.8008 29.6445 97.0039 29.1875 97.0195 28.6172H100.195C100.188 29.4766 99.9531 30.2656 99.4922 30.9844C99.0312 31.6953 98.3984 32.25 97.5938 32.6484C96.7969 33.0391 95.9141 33.2344 94.9453 33.2344C93.1328 33.2344 91.7031 32.6602 90.6562 31.5117C89.6094 30.3555 89.0859 28.7617 89.0859 26.7305V26.5078C89.0859 24.5547 89.6055 22.9961 90.6445 21.832C91.6836 20.668 93.1094 20.0859 94.9219 20.0859C96.5078 20.0859 97.7773 20.5391 98.7305 21.4453C99.6914 22.3438 100.18 23.543 100.195 25.043H97.0195C97.0039 24.3867 96.8008 23.8555 96.4102 23.4492C96.0195 23.0352 95.5039 22.8281 94.8633 22.8281C94.0742 22.8281 93.4766 23.1172 93.0703 23.6953C92.6719 24.2656 92.4727 25.1953 92.4727 26.4844V26.8359C92.4727 28.1406 92.6719 29.0781 93.0703 29.6484C93.4688 30.2188 94.0742 30.5039 94.8867 30.5039ZM105.703 33H102.305V20.3203H105.703V33ZM102.105 17.0391C102.105 16.5312 102.273 16.1133 102.609 15.7852C102.953 15.457 103.418 15.293 104.004 15.293C104.582 15.293 105.043 15.457 105.387 15.7852C105.73 16.1133 105.902 16.5312 105.902 17.0391C105.902 17.5547 105.727 17.9766 105.375 18.3047C105.031 18.6328 104.574 18.7969 104.004 18.7969C103.434 18.7969 102.973 18.6328 102.621 18.3047C102.277 17.9766 102.105 17.5547 102.105 17.0391ZM119.918 26.7773C119.918 28.7305 119.473 30.2969 118.582 31.4766C117.699 32.6484 116.504 33.2344 114.996 33.2344C113.715 33.2344 112.68 32.7891 111.891 31.8984V37.875H108.504V20.3203H111.645L111.762 21.5625C112.582 20.5781 113.652 20.0859 114.973 20.0859C116.535 20.0859 117.75 20.6641 118.617 21.8203C119.484 22.9766 119.918 24.5703 119.918 26.6016V26.7773ZM116.531 26.5312C116.531 25.3516 116.32 24.4414 115.898 23.8008C115.484 23.1602 114.879 22.8398 114.082 22.8398C113.02 22.8398 112.289 23.2461 111.891 24.0586V29.25C112.305 30.0859 113.043 30.5039 114.105 30.5039C115.723 30.5039 116.531 29.1797 116.531 26.5312ZM127.863 33.2344C126.004 33.2344 124.488 32.6641 123.316 31.5234C122.152 30.3828 121.57 28.8633 121.57 26.9648V26.6367C121.57 25.3633 121.816 24.2266 122.309 23.2266C122.801 22.2188 123.496 21.4453 124.395 20.9062C125.301 20.3594 126.332 20.0859 127.488 20.0859C129.223 20.0859 130.586 20.6328 131.578 21.7266C132.578 22.8203 133.078 24.3711 133.078 26.3789V27.7617H125.004C125.113 28.5898 125.441 29.2539 125.988 29.7539C126.543 30.2539 127.242 30.5039 128.086 30.5039C129.391 30.5039 130.41 30.0312 131.145 29.0859L132.809 30.9492C132.301 31.668 131.613 32.2305 130.746 32.6367C129.879 33.0352 128.918 33.2344 127.863 33.2344ZM127.477 22.8281C126.805 22.8281 126.258 23.0547 125.836 23.5078C125.422 23.9609 125.156 24.6094 125.039 25.4531H129.75V25.1836C129.734 24.4336 129.531 23.8555 129.141 23.4492C128.75 23.0352 128.195 22.8281 127.477 22.8281ZM141.879 29.4961C141.879 29.082 141.672 28.7578 141.258 28.5234C140.852 28.2812 140.195 28.0664 139.289 27.8789C136.273 27.2461 134.766 25.9648 134.766 24.0352C134.766 22.9102 135.23 21.9727 136.16 21.2227C137.098 20.4648 138.32 20.0859 139.828 20.0859C141.438 20.0859 142.723 20.4648 143.684 21.2227C144.652 21.9805 145.137 22.9648 145.137 24.1758H141.75C141.75 23.6914 141.594 23.293 141.281 22.9805C140.969 22.6602 140.48 22.5 139.816 22.5C139.246 22.5 138.805 22.6289 138.492 22.8867C138.18 23.1445 138.023 23.4727 138.023 23.8711C138.023 24.2461 138.199 24.5508 138.551 24.7852C138.91 25.0117 139.512 25.2109 140.355 25.3828C141.199 25.5469 141.91 25.7344 142.488 25.9453C144.277 26.6016 145.172 27.7383 145.172 29.3555C145.172 30.5117 144.676 31.4492 143.684 32.168C142.691 32.8789 141.41 33.2344 139.84 33.2344C138.777 33.2344 137.832 33.0469 137.004 32.6719C136.184 32.2891 135.539 31.7695 135.07 31.1133C134.602 30.4492 134.367 29.7344 134.367 28.9688H137.578C137.609 29.5703 137.832 30.0312 138.246 30.3516C138.66 30.6719 139.215 30.832 139.91 30.832C140.559 30.832 141.047 30.7109 141.375 30.4688C141.711 30.2188 141.879 29.8945 141.879 29.4961Z" fill="#F5F5F5"/>
<path d="M156.434 28.5234C156.434 27.8594 156.199 27.3516 155.73 27C155.262 26.6406 154.418 26.2656 153.199 25.875C151.98 25.4766 151.016 25.0859 150.305 24.7031C148.367 23.6562 147.398 22.2461 147.398 20.4727C147.398 19.5508 147.656 18.7305 148.172 18.0117C148.695 17.2852 149.441 16.7188 150.41 16.3125C151.387 15.9062 152.48 15.7031 153.691 15.7031C154.91 15.7031 155.996 15.9258 156.949 16.3711C157.902 16.8086 158.641 17.4297 159.164 18.2344C159.695 19.0391 159.961 19.9531 159.961 20.9766H156.445C156.445 20.1953 156.199 19.5898 155.707 19.1602C155.215 18.7227 154.523 18.5039 153.633 18.5039C152.773 18.5039 152.105 18.6875 151.629 19.0547C151.152 19.4141 150.914 19.8906 150.914 20.4844C150.914 21.0391 151.191 21.5039 151.746 21.8789C152.309 22.2539 153.133 22.6055 154.219 22.9336C156.219 23.5352 157.676 24.2812 158.59 25.1719C159.504 26.0625 159.961 27.1719 159.961 28.5C159.961 29.9766 159.402 31.1367 158.285 31.9805C157.168 32.8164 155.664 33.2344 153.773 33.2344C152.461 33.2344 151.266 32.9961 150.188 32.5195C149.109 32.0352 148.285 31.375 147.715 30.5391C147.152 29.7031 146.871 28.7344 146.871 27.6328H150.398C150.398 29.5156 151.523 30.457 153.773 30.457C154.609 30.457 155.262 30.2891 155.73 29.9531C156.199 29.6094 156.434 29.1328 156.434 28.5234ZM165.434 21.7031C166.332 20.625 167.461 20.0859 168.82 20.0859C171.57 20.0859 172.965 21.6836 173.004 24.8789V33H169.617V24.9727C169.617 24.2461 169.461 23.7109 169.148 23.3672C168.836 23.0156 168.316 22.8398 167.59 22.8398C166.598 22.8398 165.879 23.2227 165.434 23.9883V33H162.047V15H165.434V21.7031ZM182.906 33C182.75 32.6953 182.637 32.3164 182.566 31.8633C181.746 32.7773 180.68 33.2344 179.367 33.2344C178.125 33.2344 177.094 32.875 176.273 32.1562C175.461 31.4375 175.055 30.5312 175.055 29.4375C175.055 28.0938 175.551 27.0625 176.543 26.3438C177.543 25.625 178.984 25.2617 180.867 25.2539H182.426V24.5273C182.426 23.9414 182.273 23.4727 181.969 23.1211C181.672 22.7695 181.199 22.5938 180.551 22.5938C179.98 22.5938 179.531 22.7305 179.203 23.0039C178.883 23.2773 178.723 23.6523 178.723 24.1289H175.336C175.336 23.3945 175.562 22.7148 176.016 22.0898C176.469 21.4648 177.109 20.9766 177.938 20.625C178.766 20.2656 179.695 20.0859 180.727 20.0859C182.289 20.0859 183.527 20.4805 184.441 21.2695C185.363 22.0508 185.824 23.1523 185.824 24.5742V30.0703C185.832 31.2734 186 32.1836 186.328 32.8008V33H182.906ZM180.105 30.6445C180.605 30.6445 181.066 30.5352 181.488 30.3164C181.91 30.0898 182.223 29.7891 182.426 29.4141V27.2344H181.16C179.465 27.2344 178.562 27.8203 178.453 28.9922L178.441 29.1914C178.441 29.6133 178.59 29.9609 178.887 30.2344C179.184 30.5078 179.59 30.6445 180.105 30.6445ZM195.551 23.4961C195.09 23.4336 194.684 23.4023 194.332 23.4023C193.051 23.4023 192.211 23.8359 191.812 24.7031V33H188.426V20.3203H191.625L191.719 21.832C192.398 20.668 193.34 20.0859 194.543 20.0859C194.918 20.0859 195.27 20.1367 195.598 20.2383L195.551 23.4961ZM202.793 33.2344C200.934 33.2344 199.418 32.6641 198.246 31.5234C197.082 30.3828 196.5 28.8633 196.5 26.9648V26.6367C196.5 25.3633 196.746 24.2266 197.238 23.2266C197.73 22.2188 198.426 21.4453 199.324 20.9062C200.23 20.3594 201.262 20.0859 202.418 20.0859C204.152 20.0859 205.516 20.6328 206.508 21.7266C207.508 22.8203 208.008 24.3711 208.008 26.3789V27.7617H199.934C200.043 28.5898 200.371 29.2539 200.918 29.7539C201.473 30.2539 202.172 30.5039 203.016 30.5039C204.32 30.5039 205.34 30.0312 206.074 29.0859L207.738 30.9492C207.23 31.668 206.543 32.2305 205.676 32.6367C204.809 33.0352 203.848 33.2344 202.793 33.2344ZM202.406 22.8281C201.734 22.8281 201.188 23.0547 200.766 23.5078C200.352 23.9609 200.086 24.6094 199.969 25.4531H204.68V25.1836C204.664 24.4336 204.461 23.8555 204.07 23.4492C203.68 23.0352 203.125 22.8281 202.406 22.8281Z" fill="#FF5151"/>
</svg>
