<svg width="50" height="50" viewBox="0 0 50 50" fill="none" xmlns="http://www.w3.org/2000/svg">
<path d="M45.1501 21.75L44.6001 21.4L45.1501 20.95C45.8001 20.45 46.2001 19.6 46.2001 18.75V13.75C46.2001 12.75 45.7001 11.85 44.8501 11.35L28.7501 1.65001C27.7501 1.05001 26.4501 1.10001 25.5501 1.85001L4.55006 18.8C3.85006 19.4 3.50006 20.2 3.50006 21.05V26.1C3.50006 27.05 4.05006 28 4.85006 28.5L5.40006 28.85L4.85006 29.3C4.20006 29.85 3.80006 30.65 3.80006 31.5V36.5C3.80006 37.5 4.30006 38.4 5.15006 38.95L20.5501 48.2C21.2001 48.55 21.8501 48.75 22.5501 48.75C23.4001 48.75 24.3001 48.45 25.0001 47.9L45.4001 31.4C46.1001 30.85 46.4501 30.05 46.4501 29.2V24.15C46.5001 23.2 45.9501 22.25 45.1501 21.75ZM33.5001 10.35C33.7001 10.55 33.7001 10.9 33.5001 11.1L30.1501 14.2C30.0001 14.35 30.0001 14.6 30.1501 14.75L30.4001 15C30.5501 15.15 30.8001 15.15 30.9501 15L34.2501 11.9C34.4501 11.7 34.8001 11.7 35.0001 11.9C35.2001 12.1 35.2001 12.45 35.0001 12.65L31.6501 15.75C31.5001 15.9 31.5001 16.15 31.6501 16.3L31.9001 16.6C32.0501 16.75 32.3001 16.75 32.4501 16.6L35.7501 13.5C35.9501 13.3 36.3001 13.3 36.5001 13.5C36.7001 13.7 36.7001 14.05 36.4501 14.25L32.5501 17.9C32.0001 18.4 31.1501 18.4 30.6501 17.85L30.4001 17.6L23.1501 25.3C22.8501 25.65 22.4001 25.8 21.9501 25.8C21.5001 25.8 21.0501 25.6 20.7501 25.3L20.7001 25.25C20.4001 24.9 20.2501 24.5 20.2501 24.05C20.3001 23.6 20.5001 23.2 20.8501 22.9L29.0001 16.2L29.0501 16.15L28.8001 15.9C28.3001 15.35 28.3501 14.5 28.8501 14L32.7501 10.35C32.9501 10.15 33.3001 10.15 33.5001 10.35ZM14.2501 20.3C14.3001 19.85 14.5501 19.4 14.9501 19.15L20.6501 15.3L20.2001 14.85C19.9501 14.6 19.8001 14.2 19.8501 13.85C19.8501 13.45 20.0501 13.15 20.3001 12.9L23.7501 9.90001C24.5501 9.20001 25.5001 8.75001 26.5001 8.60001C27.5001 8.45001 28.5501 8.55001 29.5001 8.95001C29.5501 9.00001 29.6501 9.00001 29.6501 9.10001C29.7001 9.15001 29.7501 9.25001 29.8001 9.35001C29.8501 9.50001 29.8001 9.70001 29.6501 9.80001L16.9501 21.65C16.3001 22.25 15.3001 22.25 14.6501 21.6C14.3501 21.25 14.2001 20.8 14.2501 20.3ZM5.80006 26.1V22.25L20.9001 31.35C21.3501 31.6 21.8501 31.75 22.3501 31.75C23.0001 31.75 23.6001 31.55 24.1501 31.1L43.9001 15.15V18.8C43.9001 18.95 43.8501 19.1 43.7001 19.25L23.3001 35.75C22.7501 36.15 22.0001 36.2 21.4001 35.85L6.05006 26.55C5.85006 26.45 5.80006 26.3 5.80006 26.1ZM44.2001 29.2C44.2001 29.4 44.1501 29.55 44.0001 29.65L23.6501 46.1C23.1501 46.55 22.4001 46.6 21.8001 46.25L6.40006 37C6.25006 36.9 6.15006 36.7 6.15006 36.5V32.65L21.3001 41.75C21.7501 42 22.2501 42.15 22.7501 42.15C23.4001 42.15 24.0001 41.9 24.5001 41.5L44.2501 25.55V29.2H44.2001Z" fill="#202020"/>
</svg>
